#!OML:ASF E:\inclinewalkrobotboard\Project 1\Capture day 1\Session 1\subject1.ASF
:FULLY-SPECIFIED
:DEGREES
317
root 9.93984 16.0018 1.1546 -174.687 -12.2052 178.926
lowerback -5.5651 0.942706 -6.65665
upperback 1.0431 1.6651 1.5854
thorax 3.98006 0.652183 5.54871
lowerneck -8.65644 4.59426 -1.55459
upperneck 18.4213 6.00661 0.106552
head 7.00078 2.56081 0.773067
rclavicle 7.97623e-015 2.18663e-015
rhumerus -47.89 -28.1566 -63.4636
rradius 27.6615
rwrist 19.3918
rhand -10.2742 -44.9455
rfingers 7.12502
rthumb 15.7196 -74.3271
lclavicle 7.97623e-015 2.18663e-015
lhumerus -29.5875 17.5006 78.128
lradius 12.7294
lwrist -40.0198
lhand -29.7553 -17.6529
lfingers 7.12502
lthumb -3.08117 12.3046
rfemur -26.0784 -0.771621 10.2808
rtibia 22.6625
rfoot -4.41397 -9.09261
rtoes -21.9215
lfemur -0.462771 -11.6482 -22.0581
ltibia 34.8247
lfoot -19.1442 2.54822
ltoes -62.0337
318
root 9.87262 15.9794 1.31619 -174.893 -12.3906 178.971
lowerback -5.45863 0.888706 -6.73461
upperback 1.09309 1.59009 1.64757
thorax 3.97972 0.610912 5.65048
lowerneck -8.76419 4.55272 -1.49909
upperneck 18.4399 5.94818 0.104087
head 7.02819 2.53729 0.761701
rclavicle -2.06239e-014 -1.55052e-014
rhumerus -48.5359 -28.6954 -62.6298
rradius 27.3474
rwrist 19.329
rhand -10.0386 -45.3016
rfingers 7.12502
rthumb 15.9465 -74.6651
lclavicle -2.06239e-014 -1.55052e-014
lhumerus -29.3886 17.4249 78.328
lradius 12.7502
lwrist -39.8526
lhand -28.7256 -17.4798
lfingers 7.12502
lthumb -2.0867 12.4898
rfemur -26.1395 -0.911908 9.85309
rtibia 22.2437
rfoot -3.56368 -9.35531
rtoes -23.3494
lfemur -0.363055 -11.6735 -22.3658
ltibia 34.0689
lfoot -20.4195 2.63976
ltoes -62.0324
319
root 9.80504 15.9604 1.48047 -175.136 -12.6408 178.919
lowerback -5.22883 0.822807 -6.913
upperback 1.11787 1.49792 1.67766
thorax 3.88484 0.56369 5.77033
lowerneck -8.91865 4.55508 -1.70273
upperneck 18.486 5.94858 0.348877
head 7.05546 2.54577 0.878051
rclavicle -5.24792e-014 1.07344e-014
rhumerus -49.2528 -29.245 -61.7227
rradius 26.9714
rwrist 19.4826
rhand -10.5162 -45.1425
rfingers 7.12502
rthumb 15.4865 -74.5422
lclavicle -5.24792e-014 1.07344e-014
lhumerus -29.155 16.7827 78.7677
lradius 12.8983
lwrist -39.1994
lhand -29.1553 -18.8949
lfingers 7.12502
lthumb -2.50167 11.0702
rfemur -26.0244 -0.988751 9.27292
rtibia 21.5959
rfoot -2.59441 -9.74062
rtoes -24.005
lfemur -0.234184 -11.6967 -22.7678
ltibia 33.3759
lfoot -21.5631 3.05941
ltoes -62.79
320
root 9.73874 15.9397 1.65212 -175.244 -12.6448 178.864
lowerback -5.08953 0.878302 -7.0268
upperback 1.11826 1.57054 1.65753
thorax 3.79356 0.601293 5.81525
lowerneck -9.01511 4.52278 -1.63952
upperneck 18.5558 5.86876 0.508407
head 7.0924 2.52551 0.915931
rclavicle 1.00386e-014 1.27222e-014
rhumerus -50.0527 -30.032 -60.6508
rradius 26.5816
rwrist 19.9772
rhand -10.8717 -44.9692
rfingers 7.12502
rthumb 15.1441 -74.3951
lclavicle 1.00386e-014 1.27222e-014
lhumerus -28.771 15.1859 79.676
lradius 13.3405
lwrist -37.6345
lhand -29.3033 -19.7321
lfingers 7.12502
lthumb -2.64463 10.2312
rfemur -26.2585 -0.905698 8.69243
rtibia 21.1266
rfoot -1.68746 -10.128
rtoes -24.0151
lfemur -0.342443 -11.4825 -23.0971
ltibia 32.8567
lfoot -22.6116 2.61325
ltoes -62.2279
321
root 9.67351 15.9234 1.82539 -175.427 -12.7185 178.836
lowerback -4.94798 0.900131 -7.13773
upperback 1.21686 1.59948 1.65322
thorax 3.81014 0.609527 5.87371
lowerneck -9.20552 4.50542 -1.64598
upperneck 18.6152 5.82764 0.666524
head 7.14022 2.52075 0.970471
rclavicle -3.63279e-014 8.34896e-015
rhumerus -50.7845 -30.8355 -59.6481
rradius 26.2563
rwrist 20.6905
rhand -11.5218 -44.8151
rfingers 7.12502
rthumb 14.5178 -74.2871
lclavicle -3.63279e-014 8.34896e-015
lhumerus -28.2216 13.981 80.4961
lradius 13.6687
lwrist -36.5045
lhand -29.5761 -19.6198
lfingers 7.12502
lthumb -2.90806 10.3401
rfemur -26.3697 -0.807475 8.1135
rtibia 20.5842
rfoot -0.809183 -10.6816
rtoes -24.0476
lfemur -0.419399 -11.303 -23.3432
ltibia 32.3035
lfoot -23.4578 1.33598
ltoes -60.4931
322
root 9.6087 15.9131 1.99983 -175.619 -12.7959 178.606
lowerback -4.76679 0.854515 -7.50285
upperback 1.3457 1.55297 1.6174
thorax 3.84335 0.572519 6.0376
lowerneck -9.05673 4.53853 -1.27418
upperneck 18.3085 5.86161 0.451058
head 7.03324 2.55614 0.835933
rclavicle 3.00165e-014 1.78906e-015
rhumerus -51.3881 -31.4499 -58.826
rradius 25.8794
rwrist 21.6321
rhand -12.6983 -43.8817
rfingers 7.12502
rthumb 13.384 -73.4318
lclavicle 3.00165e-014 1.78906e-015
lhumerus -27.6856 12.9596 81.2067
lradius 13.9542
lwrist -35.5659
lhand -30.158 -20.0293
lfingers 7.12502
lthumb -3.47006 9.92216
rfemur -26.3816 -0.749154 7.28131
rtibia 19.8915
rfoot 0.269139 -11.2763
rtoes -23.2382
lfemur -0.482308 -11.2115 -23.8522
ltibia 31.7854
lfoot -24.1257 0.484955
ltoes -59.2767
323
root 9.54285 15.9075 2.1753 -175.755 -12.7869 178.331
lowerback -4.59803 0.819424 -7.90907
upperback 1.45333 1.52131 1.59636
thorax 3.85853 0.542552 6.24176
lowerneck -9.07559 4.59334 -1.1324
upperneck 18.1819 5.93184 0.405878
head 7.00107 2.60218 0.803444
rclavicle -4.52981e-014 -1.03368e-014
rhumerus -51.8697 -31.893 -58.1322
rradius 25.5044
rwrist 22.3984
rhand -11.6117 -43.8969
rfingers 7.12502
rthumb 14.4312 -73.3751
lclavicle -4.52981e-014 -1.03368e-014
lhumerus -27.2494 11.1353 82.2546
lradius 14.6593
lwrist -33.8879
lhand -29.9565 -19.5999
lfingers 7.12502
lthumb -3.27544 10.3547
rfemur -26.4768 -0.640733 6.38817
rtibia 19.1821
rfoot 1.46098 -11.93
rtoes -21.939
lfemur -0.695656 -11.0956 -24.4277
ltibia 31.4502
lfoot -24.6843 0.216784
ltoes -59.0084
324
root 9.47764 15.9065 2.3534 -175.893 -12.7016 178.286
lowerback -4.40837 0.867062 -8.0283
upperback 1.51877 1.57686 1.61798
thorax 3.80761 0.566841 6.33216
lowerneck -9.15366 4.64788 -1.2124
upperneck 18.1525 5.99915 0.562986
head 6.99675 2.64627 0.874226
rclavicle -1.28216e-014 8.54774e-015
rhumerus -52.5251 -32.3358 -57.436
rradius 25.2624
rwrist 22.5577
rhand -10.713 -45.5803
rfingers 7.12502
rthumb 15.297 -74.9946
lclavicle -1.28216e-014 8.54774e-015
lhumerus -26.9116 8.97858 83.3853
lradius 15.5317
lwrist -31.9936
lhand -29.4656 -19.0418
lfingers 7.12502
lthumb -2.80141 10.9195
rfemur -26.6467 -0.474765 5.7602
rtibia 18.4087
rfoot 2.79257 -12.6773
rtoes -21.4496
lfemur -0.98214 -10.8525 -24.7068
ltibia 31.0521
lfoot -25.0287 -0.143753
ltoes -58.6595
325
root 9.41559 15.9113 2.53026 -176.035 -12.6568 178.236
lowerback -4.18187 0.957961 -8.08771
upperback 1.54352 1.68436 1.56681
thorax 3.68714 0.62404 6.31221
lowerneck -9.19446 4.68142 -1.31295
upperneck 18.1529 6.00994 0.867832
head 6.99 2.67341 0.9901
rclavicle 9.98893e-015 7.15625e-015
rhumerus -53.5494 -32.9885 -56.5437
rradius 25.0982
rwrist 22.8676
rhand -11.7285 -44.1866
rfingers 7.12502
rthumb 14.3186 -73.6728
lclavicle 9.98893e-015 7.15625e-015
lhumerus -26.581 7.29033 84.1961
lradius 16.1427
lwrist -30.7814
lhand -29.3344 -19.7643
lfingers 7.12502
lthumb -2.67461 10.1987
rfemur -26.6794 -0.260723 5.10117
rtibia 17.4036
rfoot 4.41486 -13.5665
rtoes -21.46
lfemur -1.21898 -10.6483 -25.0059
ltibia 30.5469
lfoot -25.1736 -0.407798
ltoes -58.3122
326
root 9.35463 15.9217 2.70259 -176.091 -12.5858 178.119
lowerback -4.07887 1.00056 -8.23536
upperback 1.57648 1.74307 1.5095
thorax 3.65178 0.650606 6.33657
lowerneck -9.4896 4.7417 -1.44896
upperneck 18.3571 6.07113 1.14612
head 7.09311 2.71478 1.11814
rclavicle 1.02623e-014 -2.54444e-014
rhumerus -54.3875 -33.6151 -55.6853
rradius 24.8034
rwrist 23.5192
rhand -12.1551 -43.8056
rfingers 7.12502
rthumb 13.9075 -73.3205
lclavicle 1.02623e-014 -2.54444e-014
lhumerus -26.1813 5.75648 84.9766
lradius 16.7577
lwrist -29.5056
lhand -29.3815 -20.3649
lfingers 7.12502
lthumb -2.7201 9.59748
rfemur -26.6753 0.120831 4.33991
rtibia 16.2104
rfoot 6.33291 -14.6566
rtoes -20.8484
lfemur -1.47419 -10.4548 -25.4023
ltibia 30.034
lfoot -25.2777 -0.493954
ltoes -57.9146
327
root 9.29745 15.9362 2.87009 -176.126 -12.4147 178.061
lowerback -4.00467 1.01611 -8.4145
upperback 1.60736 1.76796 1.5035
thorax 3.63404 0.658232 6.43202
lowerneck -9.62319 4.81188 -1.21046
upperneck 18.4074 6.15083 1.04942
head 7.14342 2.76108 1.06033
rclavicle -7.50412e-015 -9.14409e-015
rhumerus -54.9868 -34.1757 -54.9086
rradius 24.3225
rwrist 24.3011
rhand -12.1452 -43.8309
rfingers 7.12502
rthumb 13.9171 -73.3451
lclavicle -7.50412e-015 -9.14409e-015
lhumerus -25.8176 4.3941 85.6891
lradius 17.411
lwrist -28.1568
lhand -29.4666 -20.329
lfingers 7.12502
lthumb -2.80234 9.6323
rfemur -26.7062 0.71344 3.63467
rtibia 14.9185
rfoot 8.28086 -16.0263
rtoes -19.7497
lfemur -1.76149 -10.1316 -25.6966
ltibia 29.5426
lfoot -25.3378 -0.544098
ltoes -57.4455
